# xmcd CD database file
#
# Track frame offsets:
#	150
#	37830
#	76867
#	100790
#	133955
#	165117
#
# Disc length: 2536 seconds
#
# Revision: 0
# Processed by: cddbd v1.5.1PL0 Copyright (c) Steve Scherf et al.
# Submitted via: CDex 1.51
#
DISCID=3809e606
DTITLE=Lou Donaldson - Good Gracious!
DYEAR=1963
DGENRE=Jazz
TTITLE0=Bad John
TTITLE1=The Holy Ghost
TTITLE2=Cherry
TTITLE3=Caracas
TTITLE4=Good Gracious
TTITLE5=Don't Worry 'Bout Me
EXTD=YEAR: 1963
EXTT0=
EXTT1=
EXTT2=
EXTT3=
EXTT4=
EXTT5=
PLAYORDER=
